# xmcd CD database file
#
# Track frame offsets:
#	187
#	20540
#	43025
#	58552
#	77952
#	99295
#	112187
#	127137
#	145927
#	167012
#	192252
#
# Disc length: 2834 seconds
#
# Revision: 0
# Processed by: cddbd v1.5.1PL2 Copyright (c) Steve Scherf et al.
# Submitted via: CDex 1.51
#
DISCID=990b100b
DTITLE=田中美奈子 - TWO HEART
DYEAR=1992
DGENRE=J-Pop
TTITLE0=夢をあきらめないで
TTITLE1=想い出はいらない
TTITLE2=恋のバカンス
TTITLE3=マーメイド
TTITLE4=Originality
TTITLE5=ひと夏の経験
TTITLE6=青い果実
TTITLE7=ギリギリしてる
TTITLE8=A・BU・NA・I
TTITLE9=風にのって
TTITLE10=秘密の夜にして
EXTD=YEAR: 1992
EXTT0=
EXTT1=
EXTT2=
EXTT3=
EXTT4=
EXTT5=
EXTT6=
EXTT7=
EXTT8=
EXTT9=
EXTT10=
PLAYORDER=
